# Made in Blockbench 5.0.5
mtllib hermit.mtl

o Claw
v -0.1698341948350509 0.1195333870646901 0.36421060616293544
v -0.09179711844877901 0.15209242037723955 0.19685955579624234
v -0.16066083346004612 -0.0035675820618358833 0.3445382692099026
v -0.08262375707377423 0.02899145125071355 0.1771872188432095
v -0.20508559182836025 0.15209242037723955 0.1440322730786549
v -0.28312266821463217 0.1195333870646901 0.311383323445348
v -0.19591223045335548 0.02899145125071355 0.12435993612562207
v -0.27394930683962737 -0.0035675820618358833 0.2917109864923152
vt 0 0.375
vt 0.125 0.375
vt 0.125 0.25
vt 0 0.25
vt 0.75 0.3125
vt 0.9375 0.3125
vt 0.9375 0.1875
vt 0.75 0.1875
vt 0 0.375
vt 0.125 0.375
vt 0.125 0.25
vt 0 0.25
vt 0 0.375
vt 0.1875 0.375
vt 0.1875 0.25
vt 0 0.25
vt 0.75 0.375
vt 0.875 0.375
vt 0.875 0.1875
vt 0.75 0.1875
vt 0 0.375
vt 0.125 0.375
vt 0.125 0.1875
vt 0 0.1875
vn 0.41619774072678345 0.17364817766693036 -0.8925389352890302
vn 0.9063077870366499 1.3877787807814457e-17 0.4226182617406994
vn -0.41619774072678345 -0.17364817766693036 0.8925389352890302
vn -0.9063077870366499 -1.3877787807814457e-17 -0.4226182617406994
vn -0.07338689100003824 0.984807753012208 0.15737869562426268
vn 0.07338689100003824 -0.984807753012208 -0.15737869562426268
usemtl m_fe18c0bb-52e7-a246-2fe6-3445b77aa27a
f 4/4/1 7/3/1 5/2/1 2/1/1
f 3/8/2 4/7/2 2/6/2 1/5/2
f 8/12/3 3/11/3 1/10/3 6/9/3
f 7/16/4 8/15/4 6/14/4 5/13/4
f 6/20/5 1/19/5 2/18/5 5/17/5
f 7/24/6 4/23/6 3/22/6 8/21/6
o Claw
v 0.22160305388335788 0.003642714521173554 0.33894549967113774
v 0.143565977497086 0.036201747833722986 0.17159444930444456
v 0.23077641525836265 0.12674368364769956 0.35861783662417057
v 0.15273933887209076 0.159302716960249 0.1912667862574774
v 0.25685445087666725 0.036201747833723 0.11876716658685715
v 0.33489152726293914 0.003642714521173568 0.28611821695355033
v 0.266027812251672 0.159302716960249 0.13843950353988999
v 0.3440648886379439 0.12674368364769958 0.30579055390658316
vt 0 0.375
vt 0.125 0.375
vt 0.125 0.25
vt 0 0.25
vt 0.75 0.375
vt 0.9375 0.375
vt 0.9375 0.25
vt 0.75 0.25
vt 0 0.375
vt 0.125 0.375
vt 0.125 0.25
vt 0 0.25
vt 0 0.375
vt 0.1875 0.375
vt 0.1875 0.25
vt 0 0.25
vt 0 0.375
vt 0.125 0.375
vt 0.125 0.1875
vt 0 0.1875
vt 0.75 0.375
vt 0.875 0.375
vt 0.875 0.1875
vt 0.75 0.1875
vn -0.4161977407267835 0.17364817766693028 -0.8925389352890302
vn -0.90630778703665 -1.1102230246251565e-16 0.42261826174069944
vn 0.4161977407267835 -0.17364817766693028 0.8925389352890302
vn 0.90630778703665 1.1102230246251565e-16 -0.42261826174069944
vn -0.07338689100003813 -0.9848077530122081 -0.15737869562426268
vn 0.07338689100003813 0.9848077530122081 0.15737869562426268
usemtl m_fe18c0bb-52e7-a246-2fe6-3445b77aa27a
f 12/28/7 15/27/7 13/26/7 10/25/7
f 11/32/8 12/31/8 10/30/8 9/29/8
f 16/36/9 11/35/9 9/34/9 14/33/9
f 15/40/10 16/39/10 14/38/10 13/37/10
f 14/44/11 9/43/11 10/42/11 13/41/11
f 15/48/12 12/47/12 11/46/12 16/45/12
o HindLeft
v 0.140625 0.0625 0.015625
v 0.140625 0.0625 -0.046875
v 0.140625 0 0.015625
v 0.140625 0 -0.046875
v 0.078125 0.0625 -0.046875
v 0.078125 0.0625 0.015625
v 0.078125 0 -0.046875
v 0.078125 0 0.015625
vt 0 0.375
vt 0.0625 0.375
vt 0.0625 0.3125
vt 0 0.3125
vt 0 0.375
vt 0.0625 0.375
vt 0.0625 0.3125
vt 0 0.3125
vt 0 0.375
vt 0.0625 0.375
vt 0.0625 0.3125
vt 0 0.3125
vt 0 0.375
vt 0.0625 0.375
vt 0.0625 0.3125
vt 0 0.3125
vt 0 0.375
vt 0.0625 0.375
vt 0.0625 0.3125
vt 0 0.3125
vt 0 0.375
vt 0.0625 0.375
vt 0.0625 0.3125
vt 0 0.3125
vn 0 0 -1
vn 1 0 0
vn 0 0 1
vn -1 0 0
vn 0 1 0
vn 0 -1 0
usemtl m_fe18c0bb-52e7-a246-2fe6-3445b77aa27a
f 20/52/13 23/51/13 21/50/13 18/49/13
f 19/56/14 20/55/14 18/54/14 17/53/14
f 24/60/15 19/59/15 17/58/15 22/57/15
f 23/64/16 24/63/16 22/62/16 21/61/16
f 22/68/17 17/67/17 18/66/17 21/65/17
f 23/72/18 20/71/18 19/70/18 24/69/18
o HindRight
v -0.015625 0.0625 0.015625
v -0.015625 0.0625 -0.046875
v -0.015625 0 0.015625
v -0.015625 0 -0.046875
v -0.078125 0.0625 -0.046875
v -0.078125 0.0625 0.015625
v -0.078125 0 -0.046875
v -0.078125 0 0.015625
vt 0 0.375
vt 0.0625 0.375
vt 0.0625 0.3125
vt 0 0.3125
vt 0 0.375
vt 0.0625 0.375
vt 0.0625 0.3125
vt 0 0.3125
vt 0 0.375
vt 0.0625 0.375
vt 0.0625 0.3125
vt 0 0.3125
vt 0 0.375
vt 0.0625 0.375
vt 0.0625 0.3125
vt 0 0.3125
vt 0 0.375
vt 0.0625 0.375
vt 0.0625 0.3125
vt 0 0.3125
vt 0 0.375
vt 0.0625 0.375
vt 0.0625 0.3125
vt 0 0.3125
vn 0 0 -1
vn 1 0 0
vn 0 0 1
vn -1 0 0
vn 0 1 0
vn 0 -1 0
usemtl m_fe18c0bb-52e7-a246-2fe6-3445b77aa27a
f 28/76/19 31/75/19 29/74/19 26/73/19
f 27/80/20 28/79/20 26/78/20 25/77/20
f 32/84/21 27/83/21 25/82/21 30/81/21
f 31/88/22 32/87/22 30/86/22 29/85/22
f 30/92/23 25/91/23 26/90/23 29/89/23
f 31/96/24 28/95/24 27/94/24 32/93/24
o FrontLeft
v 0.171875 0.0625 0.140625
v 0.171875 0.0625 0.078125
v 0.171875 0 0.140625
v 0.171875 0 0.078125
v 0.109375 0.0625 0.078125
v 0.109375 0.0625 0.140625
v 0.109375 0 0.078125
v 0.109375 0 0.140625
vt 0 0.375
vt 0.0625 0.375
vt 0.0625 0.3125
vt 0 0.3125
vt 0 0.375
vt 0.0625 0.375
vt 0.0625 0.3125
vt 0 0.3125
vt 0 0.375
vt 0.0625 0.375
vt 0.0625 0.3125
vt 0 0.3125
vt 0 0.375
vt 0.0625 0.375
vt 0.0625 0.3125
vt 0 0.3125
vt 0 0.375
vt 0.0625 0.375
vt 0.0625 0.3125
vt 0 0.3125
vt 0 0.375
vt 0.0625 0.375
vt 0.0625 0.3125
vt 0 0.3125
vn 0 0 -1
vn 1 0 0
vn 0 0 1
vn -1 0 0
vn 0 1 0
vn 0 -1 0
usemtl m_fe18c0bb-52e7-a246-2fe6-3445b77aa27a
f 36/100/25 39/99/25 37/98/25 34/97/25
f 35/104/26 36/103/26 34/102/26 33/101/26
f 40/108/27 35/107/27 33/106/27 38/105/27
f 39/112/28 40/111/28 38/110/28 37/109/28
f 38/116/29 33/115/29 34/114/29 37/113/29
f 39/120/30 36/119/30 35/118/30 40/117/30
o FrontRight
v -0.046875 0.0625 0.140625
v -0.046875 0.0625 0.078125
v -0.046875 0 0.140625
v -0.046875 0 0.078125
v -0.109375 0.0625 0.078125
v -0.109375 0.0625 0.140625
v -0.109375 0 0.078125
v -0.109375 0 0.140625
vt 0 0.375
vt 0.0625 0.375
vt 0.0625 0.3125
vt 0 0.3125
vt 0 0.375
vt 0.0625 0.375
vt 0.0625 0.3125
vt 0 0.3125
vt 0 0.375
vt 0.0625 0.375
vt 0.0625 0.3125
vt 0 0.3125
vt 0 0.375
vt 0.0625 0.375
vt 0.0625 0.3125
vt 0 0.3125
vt 0 0.375
vt 0.0625 0.375
vt 0.0625 0.3125
vt 0 0.3125
vt 0 0.375
vt 0.0625 0.375
vt 0.0625 0.3125
vt 0 0.3125
vn 0 0 -1
vn 1 0 0
vn 0 0 1
vn -1 0 0
vn 0 1 0
vn 0 -1 0
usemtl m_fe18c0bb-52e7-a246-2fe6-3445b77aa27a
f 44/124/31 47/123/31 45/122/31 42/121/31
f 43/128/32 44/127/32 42/126/32 41/125/32
f 48/132/33 43/131/33 41/130/33 46/129/33
f 47/136/34 48/135/34 46/134/34 45/133/34
f 46/140/35 41/139/35 42/138/35 45/137/35
f 47/144/36 44/143/36 43/142/36 48/141/36
o Body
v 0.125 0.13318622511390832 0.22980142528911202
v 0.125 0.1978909863895385 -0.011680031283155055
v 0.125 0.012445496827774787 0.19744904465129692
v 0.125 0.07715025810340498 -0.044032411920970155
v -0.0625 0.1978909863895385 -0.011680031283155055
v -0.0625 0.13318622511390832 0.22980142528911202
v -0.0625 0.07715025810340498 -0.044032411920970155
v -0.0625 0.012445496827774787 0.19744904465129692
vt 0 0.375
vt 0.1875 0.375
vt 0.1875 0.25
vt 0 0.25
vt 0 0.375
vt 0.25 0.375
vt 0.25 0.25
vt 0 0.25
vt 0 0.375
vt 0.1875 0.375
vt 0.1875 0.25
vt 0 0.25
vt 0 0.375
vt 0.25 0.375
vt 0.25 0.25
vt 0 0.25
vt 0.1875 0.125
vt 0 0.125
vt 0 0.375
vt 0.1875 0.375
vt 0.1875 0.375
vt 0 0.375
vt 0 0.125
vt 0.1875 0.125
vn 0 0.25881904510252074 -0.9659258262890683
vn 1 0 0
vn 0 -0.25881904510252074 0.9659258262890683
vn -1 0 0
vn 0 0.9659258262890683 0.25881904510252074
vn 0 -0.9659258262890683 -0.25881904510252074
usemtl m_fe18c0bb-52e7-a246-2fe6-3445b77aa27a
f 52/148/37 55/147/37 53/146/37 50/145/37
f 51/152/38 52/151/38 50/150/38 49/149/38
f 56/156/39 51/155/39 49/154/39 54/153/39
f 55/160/40 56/159/40 54/158/40 53/157/40
f 54/164/41 49/163/41 50/162/41 53/161/41
f 55/168/42 52/167/42 51/166/42 56/165/42
o Eyes
v 0.125 0.25 0.2375
v 0.125 0.25 0.2375
v 0.125 0.0625 0.2375
v 0.125 0.0625 0.2375
v -0.0625 0.25 0.2375
v -0.0625 0.25 0.2375
v -0.0625 0.0625 0.2375
v -0.0625 0.0625 0.2375
vt 0.375 0.1875
vt 0.5625 0.1875
vt 0.5625 0
vt 0.375 0
vt 0.375 0.375
vt 0.5625 0.375
vt 0.5625 0.1875
vt 0.375 0.1875
vn 0 0 -1
vn 0 0 1
usemtl m_fe18c0bb-52e7-a246-2fe6-3445b77aa27a
f 60/172/43 63/171/43 61/170/43 58/169/43
f 64/176/44 59/175/44 57/174/44 62/173/44
o Shell
v 0.1875 0.375 0.1875
v 0.1875 0.375 -0.125
v 0.1875 0.0625 0.1875
v 0.1875 0.0625 -0.125
v -0.125 0.375 -0.125
v -0.125 0.375 0.1875
v -0.125 0.0625 -0.125
v -0.125 0.0625 0.1875
vt 0.3125 1
vt 0.625 1
vt 0.625 0.6875
vt 0.3125 0.6875
vt 0.625 0.6875
vt 0.9375 0.6875
vt 0.9375 0.375
vt 0.625 0.375
vt 0.3125 0.6875
vt 0.625 0.6875
vt 0.625 0.375
vt 0.3125 0.375
vt 0 0.6875
vt 0.3125 0.6875
vt 0.3125 0.375
vt 0 0.375
vt 0 1
vt 0.3125 1
vt 0.3125 0.6875
vt 0 0.6875
vt 0.625 1
vt 0.9375 1
vt 0.9375 0.6875
vt 0.625 0.6875
vn 0 0 -1
vn 1 0 0
vn 0 0 1
vn -1 0 0
vn 0 1 0
vn 0 -1 0
usemtl m_fe18c0bb-52e7-a246-2fe6-3445b77aa27a
f 68/180/45 71/179/45 69/178/45 66/177/45
f 67/184/46 68/183/46 66/182/46 65/181/46
f 72/188/47 67/187/47 65/186/47 70/185/47
f 71/192/48 72/191/48 70/190/48 69/189/48
f 70/196/49 65/195/49 66/194/49 69/193/49
f 71/200/50 68/199/50 67/198/50 72/197/50