# Made in Blockbench 5.0.7
mtllib bow.mtl

o mesh
v -0.043750000000000025 1.05 0.006249999999999978
v -0.043750000000000025 1.05 -0.006249999999999978
v -0.043750000000000025 0.050000000000000044 0.006249999999999978
v -0.043750000000000025 0.050000000000000044 -0.006249999999999978
v -0.05624999999999998 1.05 0.006249999999999978
v -0.05624999999999998 1.05 -0.006249999999999978
v -0.05624999999999998 0.050000000000000044 0.006249999999999978
v -0.05624999999999998 0.050000000000000044 -0.006249999999999978
vt 0.015625 0.703125
vt 0 0.703125
vt 0 0.375
vt 0.015625 0.375
vt 0.046875 0.328125
vt 0.046875 0.65625
vt 0.03125 0.65625
vt 0.03125 0.328125
vt 0.046875 0.890625
vt 0.0625 0.890625
vt 0.0625 0.90625
vt 0.046875 0.90625
vt 0.09375 0.890625
vt 0.09375 0.90625
vt 0.078125 0.90625
vt 0.078125 0.890625
vt 0.21875 0.328125
vt 0.21875 0.65625
vt 0.203125 0.65625
vt 0.203125 0.328125
vt 0.34375 0.65625
vt 0.328125 0.65625
vt 0.328125 0.328125
vt 0.34375 0.328125
vn 1 0 0
vn -1 0 0
vn 0 1 0
vn 0 -1 0
vn 0 0 1
vn 0 0 -1
usemtl m_4a990c74-b833-dd7b-c80f-00cc23b53232
f 2/1/1 1/2/1 3/3/1 4/4/1
f 7/5/2 5/6/2 6/7/2 8/8/2
f 5/9/3 1/10/3 2/11/3 6/12/3
f 4/13/4 3/14/4 7/15/4 8/16/4
f 3/17/5 1/18/5 5/19/5 7/20/5
f 6/21/6 2/22/6 4/23/6 8/24/6
o torus
v 0.13397459621556132 0.0500000000000001 0.04852857095672275
v 0.14485197782035245 0.009405059197604593 0.024264285478361448
v 0.14485197782035245 0.009405059197604593 -0.024264285478361187
v 0.13397459621556132 0.0500000000000001 -0.04852857095672253
v 0.12309721461077022 0.09059494080239561 -0.02426428547836124
v 0.12309721461077021 0.09059494080239566 0.024264285478361427
v 0.3660254037844386 0.1839745962155614 0.04852857095672272
v 0.395742962982043 0.154257037017957 0.024264285478361413
v 0.395742962982043 0.154257037017957 -0.024264285478361222
v 0.3660254037844386 0.1839745962155614 -0.048528570956722555
v 0.33630784458683416 0.21369215541316583 -0.024264285478361264
v 0.33630784458683416 0.21369215541316583 0.024264285478361403
v 0.49999999999999994 0.41602540378443875 0.048528570956722666
v 0.5405949408023955 0.4051480221796476 0.024264285478361357
v 0.5405949408023955 0.4051480221796476 -0.024264285478361278
v 0.49999999999999994 0.41602540378443875 -0.04852857095672261
v 0.45940505919760444 0.4269027853892298 -0.024264285478361312
v 0.4594050591976044 0.4269027853892298 0.024264285478361354
v 0.49999999999999994 0.6839745962155614 0.04852857095672261
v 0.5405949408023955 0.6948519778203526 0.024264285478361295
v 0.5405949408023955 0.6948519778203526 -0.02426428547836134
v 0.49999999999999994 0.6839745962155614 -0.048528570956722666
v 0.45940505919760444 0.6730972146107703 -0.024264285478361368
v 0.4594050591976044 0.6730972146107703 0.0242642854783613
v 0.36602540378443865 0.9160254037844386 0.048528570956722555
v 0.39574296298204303 0.9457429629820431 0.02426428547836124
v 0.39574296298204303 0.9457429629820431 -0.024264285478361396
v 0.36602540378443865 0.9160254037844386 -0.04852857095672272
v 0.3363078445868342 0.8863078445868342 -0.024264285478361416
v 0.3363078445868342 0.8863078445868342 0.02426428547836125
v 0.1339745962155615 1.0499999999999998 0.04852857095672253
v 0.14485197782035258 1.0905949408023954 0.024264285478361205
v 0.14485197782035258 1.0905949408023954 -0.02426428547836143
v 0.1339745962155615 1.0499999999999998 -0.04852857095672275
v 0.12309721461077035 1.0094050591976045 -0.02426428547836144
v 0.12309721461077033 1.0094050591976043 0.024264285478361226
v -0.13397459621556113 1.05 0.04852857095672253
v -0.14485197782035222 1.0905949408023956 0.024264285478361205
v -0.14485197782035222 1.0905949408023956 -0.02426428547836143
v -0.13397459621556113 1.05 -0.04852857095672275
v -0.12309721461077003 1.0094050591976045 -0.02426428547836144
v -0.12309721461077001 1.0094050591976045 0.024264285478361226
v -0.1339745962155613 0.0500000000000001 0.04852857095672275
v -0.14485197782035242 0.009405059197604593 0.024264285478361448
v -0.14485197782035242 0.009405059197604593 -0.024264285478361187
v -0.1339745962155613 0.0500000000000001 -0.04852857095672253
v -0.1230972146107702 0.09059494080239561 -0.02426428547836124
v -0.12309721461077018 0.09059494080239566 0.024264285478361427
vt 0.07237138825826238 0.8525111477374313
vt 0.07509013825826238 0.8406877102374313
vt 0.14024081356827778 0.8723226613461172
vt 0.13263070289174056 0.881771020535403
vt 0.078125 1
vt 0.078125 0.98786875
vt 0.15055000000000002 0.98786875
vt 0.15055000000000002 1
vt 0.2157151382582626 0.831187289762569
vt 0.21299638825826261 0.8193638522625689
vt 0.2732557028917408 0.7901039794645972
vt 0.280865813568278 0.799552338653883
vt 0.1182348785940578 0.65625
vt 0.12095362859405781 0.6680734375
vt 0.06558567463711687 0.6949582319872575
vt 0.05797556396057965 0.6855098727979718
vt 0.0625 0.921875
vt 0.0625 0.93400625
vt 0.0009499999999999995 0.93400625
vt 0.0009499999999999995 0.921875
vt 0.37095362859405767 0.9881765625
vt 0.3682348785940576 1
vt 0.3079755639605795 0.9707401272020282
vt 0.31558567463711673 0.9612917680127424
vt 0.13263070289174056 0.881771020535403
vt 0.14024081356827778 0.8723226613461172
vt 0.18502977265287707 0.9292377715464681
vt 0.17405701144099284 0.9344130770703841
vt 0.3132375 0.8125
vt 0.3132375 0.80036875
vt 0.3856625 0.80036875
vt 0.3856625 0.8125
vt 0.280865813568278 0.799552338653883
vt 0.2732557028917408 0.7901039794645972
vt 0.3146820114409929 0.737461922929616
vt 0.3256547726528771 0.7426372284535319
vt 0.05797556396057964 0.6855098727979718
vt 0.06558567463711687 0.6949582319872575
vt 0.027522016623211742 0.7433272348568689
vt 0.016549255411327485 0.7381519293329529
vt 0.529825 0.765625
vt 0.529825 0.77775625
vt 0.468275 0.77775625
vt 0.468275 0.765625
vt 0.31558567463711673 0.9612917680127425
vt 0.3079755639605795 0.9707401272020282
vt 0.26654925541132746 0.9180980706670469
vt 0.27752201662321174 0.912922765143131
vt 0.17405701144099284 0.9344130770703841
vt 0.18502977265287707 0.9292377715464681
vt 0.20045986174173763 1
vt 0.18832864544637834 0.9998626425316333
vt 0.3856625 0.8125
vt 0.3856625 0.80036875
vt 0.4580875 0.80036875
vt 0.4580875 0.8125
vt 0.3256547726528771 0.7426372284535319
vt 0.3146820114409929 0.737461922929616
vt 0.3289536454463781 0.6720123574683668
vt 0.34108486174173736 0.671875
vt 0.016549255411327485 0.7381519293329529
vt 0.027522016623211742 0.7433272348568689
vt 0.014408837701301441 0.8034641373258352
vt 0.002277621405942176 0.8036014947942021
vt 0.468275 0.765625
vt 0.468275 0.77775625
vt 0.406725 0.77775625
vt 0.406725 0.765625
vt 0.27752201662321174 0.912922765143131
vt 0.26654925541132746 0.9180980706670469
vt 0.25227762140594234 0.8526485052057977
vt 0.26440883770130164 0.8527858626741647
vt 0.060415444014576894 0.8125
vt 0.049442682802692664 0.807324694476084
vt 0.09423164188729195 0.7504095842757331
vt 0.10184175256382917 0.7598579434650189
vt 0.4580875 0.8125
vt 0.4580875 0.80036875
vt 0.5305124999999999 0.80036875
vt 0.5305124999999999 0.8125
vt 0.29944268280269276 0.8645503055239159
vt 0.310415444014577 0.859375
vt 0.3518417525638291 0.9120170565349813
vt 0.34423164188729183 0.921465415724267
vt 0.46714906159136516 0.9100269293329529
vt 0.4561763003794809 0.9152022348568689
vt 0.41811264236557577 0.8668332319872575
vt 0.42572275304211304 0.8573848727979717
vt 0.406725 0.765625
vt 0.406725 0.77775625
vt 0.345175 0.77775625
vt 0.345175 0.765625
vt 0.2999263003794808 0.616047765143131
vt 0.31089906159136504 0.6212230706670469
vt 0.26947275304211304 0.6738651272020282
vt 0.2618626423655758 0.6644167680127424
vt 0.10184175256382916 0.7598579434650188
vt 0.09423164188729195 0.7504095842757331
vt 0.15938231719730733 0.7187746331670472
vt 0.16210106719730732 0.7305980706670472
vt 0.005699999999999997 0.96875
vt 0.005699999999999997 0.95661875
vt 0.07812499999999999 0.95661875
vt 0.07812499999999999 0.96875
vt 0.34423164188729183 0.921465415724267
vt 0.3518417525638291 0.9120170565349813
vt 0.4121010671973072 0.941276929332953
vt 0.4093823171973072 0.953100366832953
vt 0.425722753042113 0.8573848727979717
vt 0.41811264236557577 0.8668332319872575
vt 0.36274468840863483 0.8399484375
vt 0.3654634384086348 0.828125
vt 0.18655 0.625
vt 0.18655 0.6371312499999999
vt 0.125 0.6371312499999999
vt 0.125 0.625
vt 0.2618626423655758 0.6644167680127424
vt 0.26947275304211304 0.6738651272020282
vt 0.20921343840863493 0.703125
vt 0.2064946884086349 0.6913015625
vt 0.16210106719730732 0.7305980706670472
vt 0.15938231719730733 0.7187746331670472
vt 0.23180731719730735 0.7187746331670472
vt 0.2290885671973073 0.7305980706670472
vt 0.07812499999999999 0.96875
vt 0.07812499999999999 0.95661875
vt 0.15055000000000002 0.95661875
vt 0.15055000000000002 0.96875
vt 0.4093823171973072 0.953100366832953
vt 0.4121010671973072 0.941276929332953
vt 0.47908856719730725 0.941276929332953
vt 0.48180731719730724 0.953100366832953
vt 0.3654634384086348 0.828125
vt 0.36274468840863483 0.8399484375
vt 0.30119468840863484 0.8399484375
vt 0.29847593840863484 0.828125
vt 0.125 0.625
vt 0.125 0.6371312499999999
vt 0.06345 0.6371312499999999
vt 0.06345 0.625
vt 0.20649468840863494 0.6913015625
vt 0.20921343840863493 0.703125
vt 0.14222593840863493 0.703125
vt 0.14494468840863492 0.6913015625
vt 0.00538388825826238 0.8525111477374313
vt 0.002665138258262381 0.8406877102374313
vt 0.07509013825826238 0.8406877102374313
vt 0.07237138825826238 0.8525111477374313
vt 0.005699999999999997 1
vt 0.005699999999999997 0.98786875
vt 0.078125 0.98786875
vt 0.078125 1
vt 0.14329013825826262 0.831187289762569
vt 0.1460088882582626 0.8193638522625689
vt 0.21299638825826261 0.8193638522625689
vt 0.2157151382582626 0.831187289762569
vt 0.18522237859405782 0.65625
vt 0.1825036285940578 0.6680734375
vt 0.12095362859405781 0.6680734375
vt 0.1182348785940578 0.65625
vt 0.12405 0.921875
vt 0.12405 0.93400625
vt 0.0625 0.93400625
vt 0.0625 0.921875
vt 0.43250362859405767 0.9881765625
vt 0.43522237859405766 1
vt 0.3682348785940576 1
vt 0.37095362859405767 0.9881765625
vt 0.1977375 0.8654421875
vt 0.20824375 0.859375
vt 0.21875 0.8654421875
vt 0.21875 0.8775734374999999
vt 0.21875 0.8775734374999999
vt 0.20824375 0.883640625
vt 0.1977375 0.8775734374999999
vt 0.1977375 0.8654421875
vt 0 0.8810671875
vt 0.010506249999999995 0.875
vt 0.02101249999999999 0.8810671875
vt 0.02101249999999999 0.8931984374999999
vt 0.02101249999999999 0.8931984374999999
vt 0.010506249999999995 0.899265625
vt 0 0.8931984374999999
vt 0 0.8810671875
vn 0.25652705743410315 -0.44431789699200597 0.8583562635740486
vn 0.5000000000000001 -0.8660254037844387 1.922962686383564e-16
vn 0.2565270574341032 -0.4443178969920066 -0.8583562635740484
vn -0.2565270574341031 0.4443178969920059 -0.8583562635740488
vn -0.49999999999999983 0.8660254037844387 -1.3259163192381646e-15
vn -0.2565270574341028 0.4443178969920059 0.8583562635740487
vn 0.4443178969920063 -0.2565270574341031 0.8583562635740485
vn 0.8660254037844388 -0.5000000000000001 1.1102230246251568e-16
vn 0.4443178969920067 -0.25652705743410353 -0.8583562635740483
vn -0.44431789699200547 0.2565270574341027 -0.8583562635740491
vn -0.8660254037844387 0.49999999999999994 -1.1102230246251564e-16
vn -0.44431789699200575 0.25652705743410303 0.8583562635740487
vn 0.5130541148682063 1.9059337743022566e-16 0.8583562635740486
vn 1 0 0
vn 0.5130541148682066 -1.905933774302256e-16 -0.8583562635740483
vn -0.5130541148682062 -1.9059337743022569e-16 -0.8583562635740487
vn -1 -2.539937072342493e-31 -1.143885965254616e-15
vn -0.5130541148682057 1.905933774302257e-16 0.8583562635740488
vn 0.4443178969920062 0.2565270574341033 0.8583562635740485
vn 0.8660254037844387 0.5000000000000001 -1.1102230246251568e-16
vn 0.44431789699200636 0.2565270574341031 -0.8583562635740485
vn -0.44431789699200597 -0.2565270574341033 -0.8583562635740485
vn -0.8660254037844387 -0.49999999999999994 -1.0225977481372924e-15
vn -0.44431789699200575 -0.2565270574341027 0.8583562635740489
vn 0.25652705743410337 0.44431789699200647 0.8583562635740485
vn 0.5000000000000002 0.8660254037844386 -1.9229626863835638e-16
vn 0.2565270574341034 0.44431789699200636 -0.8583562635740483
vn -0.2565270574341029 -0.44431789699200563 -0.8583562635740488
vn -0.49999999999999994 -0.8660254037844387 1.922962686383564e-16
vn -0.256527057434103 -0.4443178969920056 0.858356263574049
vn 2.0574290338658224e-16 0.513054114868206 0.8583562635740487
vn 3.8322673992138085e-16 1 -2.220446049250313e-16
vn 2.2244714535356476e-16 0.5130541148682058 -0.8583562635740488
vn -2.4210349984182865e-16 -0.5130541148682062 -0.8583562635740485
vn -4.509537555888854e-16 -1 -9.218413603295849e-16
vn -2.224471453535648e-16 -0.5130541148682055 0.8583562635740489
vn 0 -0.5130541148682062 0.8583562635740487
vn 0 -1 2.220446049250313e-16
vn 0 -0.5130541148682067 -0.8583562635740482
vn 0 0.513054114868206 -0.8583562635740489
vn 0 1 -1.3659305701796473e-15
vn 0 0.5130541148682061 0.8583562635740487
vn -0.9659258262890683 0.2588190451025208 -6.422289201210756e-16
vn -0.9659258262890683 0.25881904510252085 5.272901748873492e-16
vn -0.9659258262890685 -0.2588190451025204 3.7642912580097884e-16
vn -0.9659258262890685 -0.25881904510252035 -2.0833042170323338e-16
usemtl m_4a990c74-b833-dd7b-c80f-00cc23b53232
f 9/25/7 10/26/7 16/27/7 15/28/7
f 10/29/8 11/30/8 17/31/8 16/32/8
f 11/33/9 12/34/9 18/35/9 17/36/9
f 12/37/10 13/38/10 19/39/10 18/40/10
f 13/41/11 14/42/11 20/43/11 19/44/11
f 14/45/12 9/46/12 15/47/12 20/48/12
f 15/49/13 16/50/13 22/51/13 21/52/13
f 16/53/14 17/54/14 23/55/14 22/56/14
f 17/57/15 18/58/15 24/59/15 23/60/15
f 18/61/16 19/62/16 25/63/16 24/64/16
f 19/65/17 20/66/17 26/67/17 25/68/17
f 20/69/18 15/70/18 21/71/18 26/72/18
f 21/73/19 22/74/19 28/75/19 27/76/19
f 22/77/20 23/78/20 29/79/20 28/80/20
f 23/81/21 24/82/21 30/83/21 29/84/21
f 24/85/22 25/86/22 31/87/22 30/88/22
f 25/89/23 26/90/23 32/91/23 31/92/23
f 26/93/24 21/94/24 27/95/24 32/96/24
f 27/97/25 28/98/25 34/99/25 33/100/25
f 28/101/26 29/102/26 35/103/26 34/104/26
f 29/105/27 30/106/27 36/107/27 35/108/27
f 30/109/28 31/110/28 37/111/28 36/112/28
f 31/113/29 32/114/29 38/115/29 37/116/29
f 32/117/30 27/118/30 33/119/30 38/120/30
f 33/121/31 34/122/31 40/123/31 39/124/31
f 34/125/32 35/126/32 41/127/32 40/128/32
f 35/129/33 36/130/33 42/131/33 41/132/33
f 36/133/34 37/134/34 43/135/34 42/136/34
f 37/137/35 38/138/35 44/139/35 43/140/35
f 38/141/36 33/142/36 39/143/36 44/144/36
f 39/145/37 40/146/37 46/147/37 45/148/37
f 40/149/38 41/150/38 47/151/38 46/152/38
f 41/153/39 42/154/39 48/155/39 47/156/39
f 42/157/40 43/158/40 49/159/40 48/160/40
f 43/161/41 44/162/41 50/163/41 49/164/41
f 44/165/42 39/166/42 45/167/42 50/168/42
f 51/169/43 52/170/43 10/171/43 9/172/43
f 52/173/44 53/174/44 11/175/44 10/176/44
f 53/177/45 54/178/45 12/179/45 11/180/45
f 54/181/46 55/182/46 13/183/46 12/184/46
f 55/185/47 56/186/47 14/187/47 13/188/47
f 56/189/48 51/190/48 9/191/48 14/192/48
f 55/193/49 54/194/49 53/195/49 52/196/49
f 52/197/50 51/198/50 56/199/50 55/200/50
f 47/201/51 48/202/51 49/203/51 50/204/51
f 50/205/52 45/206/52 46/207/52 47/208/52